<mxfile host="Electron" modified="2024-04-17T17:58:06.659Z" agent="Mozilla/5.0 (Windows NT 10.0; Win64; x64) AppleWebKit/537.36 (KHTML, like Gecko) draw.io/24.2.5 Chrome/120.0.6099.109 Electron/28.1.0 Safari/537.36" etag="xye4CGIfF-knWwnMws-x" version="24.2.5" type="device">
  <diagram name="Página-1" id="lDYbbrqTZo1IgKDBRs_2">
    <mxGraphModel dx="3176" dy="2044" grid="1" gridSize="10" guides="1" tooltips="1" connect="1" arrows="1" fold="1" page="1" pageScale="1" pageWidth="827" pageHeight="1169" math="0" shadow="0">
      <root>
        <mxCell id="0" />
        <mxCell id="1" parent="0" />
        <mxCell id="ZrcZBpO1Ma6I_80lU0J9-1" value="" style="points=[[0.145,0.145,0],[0.5,0,0],[0.855,0.145,0],[1,0.5,0],[0.855,0.855,0],[0.5,1,0],[0.145,0.855,0],[0,0.5,0]];shape=mxgraph.bpmn.event;html=1;verticalLabelPosition=bottom;labelBackgroundColor=#ffffff;verticalAlign=top;align=center;perimeter=ellipsePerimeter;outlineConnect=0;aspect=fixed;outline=standard;symbol=general;" vertex="1" parent="1">
          <mxGeometry x="140" y="613" width="50" height="50" as="geometry" />
        </mxCell>
        <mxCell id="ZrcZBpO1Ma6I_80lU0J9-2" value="Inicio" style="text;html=1;align=center;verticalAlign=middle;resizable=0;points=[];autosize=1;strokeColor=none;fillColor=none;" vertex="1" parent="1">
          <mxGeometry x="138" y="668" width="50" height="30" as="geometry" />
        </mxCell>
        <mxCell id="ZrcZBpO1Ma6I_80lU0J9-3" value="Envía OTP" style="points=[[0.25,0,0],[0.5,0,0],[0.75,0,0],[1,0.25,0],[1,0.5,0],[1,0.75,0],[0.75,1,0],[0.5,1,0],[0.25,1,0],[0,0.75,0],[0,0.5,0],[0,0.25,0]];shape=mxgraph.bpmn.task;whiteSpace=wrap;rectStyle=rounded;size=10;html=1;container=1;expand=0;collapsible=0;taskMarker=abstract;" vertex="1" parent="1">
          <mxGeometry x="1020" y="598" width="120" height="80" as="geometry" />
        </mxCell>
        <mxCell id="ZrcZBpO1Ma6I_80lU0J9-7" value="Ingresa OTP" style="points=[[0.25,0,0],[0.5,0,0],[0.75,0,0],[1,0.25,0],[1,0.5,0],[1,0.75,0],[0.75,1,0],[0.5,1,0],[0.25,1,0],[0,0.75,0],[0,0.5,0],[0,0.25,0]];shape=mxgraph.bpmn.task;whiteSpace=wrap;rectStyle=rounded;size=10;html=1;container=1;expand=0;collapsible=0;taskMarker=abstract;" vertex="1" parent="1">
          <mxGeometry x="1250" y="200" width="120" height="80" as="geometry" />
        </mxCell>
        <mxCell id="ZrcZBpO1Ma6I_80lU0J9-9" value="Inicia validación de OTP" style="points=[[0.25,0,0],[0.5,0,0],[0.75,0,0],[1,0.25,0],[1,0.5,0],[1,0.75,0],[0.75,1,0],[0.5,1,0],[0.25,1,0],[0,0.75,0],[0,0.5,0],[0,0.25,0]];shape=mxgraph.bpmn.task;whiteSpace=wrap;rectStyle=rounded;size=10;html=1;container=1;expand=0;collapsible=0;taskMarker=abstract;" vertex="1" parent="1">
          <mxGeometry x="1250" y="518" width="120" height="80" as="geometry" />
        </mxCell>
        <mxCell id="ZrcZBpO1Ma6I_80lU0J9-11" value="" style="points=[[0.25,0.25,0],[0.5,0,0],[0.75,0.25,0],[1,0.5,0],[0.75,0.75,0],[0.5,1,0],[0.25,0.75,0],[0,0.5,0]];shape=mxgraph.bpmn.gateway2;html=1;verticalLabelPosition=bottom;labelBackgroundColor=#ffffff;verticalAlign=top;align=center;perimeter=rhombusPerimeter;outlineConnect=0;outline=none;symbol=none;gwType=exclusive;" vertex="1" parent="1">
          <mxGeometry x="1490" y="534" width="50" height="50" as="geometry" />
        </mxCell>
        <mxCell id="ZrcZBpO1Ma6I_80lU0J9-12" value="¿El OTP es correcto?" style="text;html=1;align=center;verticalAlign=middle;resizable=0;points=[];autosize=1;strokeColor=none;fillColor=none;" vertex="1" parent="1">
          <mxGeometry x="1444" y="505" width="140" height="30" as="geometry" />
        </mxCell>
        <mxCell id="ZrcZBpO1Ma6I_80lU0J9-13" style="edgeStyle=orthogonalEdgeStyle;rounded=0;orthogonalLoop=1;jettySize=auto;html=1;exitX=1;exitY=0.5;exitDx=0;exitDy=0;exitPerimeter=0;entryX=0;entryY=0.5;entryDx=0;entryDy=0;entryPerimeter=0;" edge="1" parent="1" source="ZrcZBpO1Ma6I_80lU0J9-9" target="ZrcZBpO1Ma6I_80lU0J9-11">
          <mxGeometry relative="1" as="geometry" />
        </mxCell>
        <mxCell id="ZrcZBpO1Ma6I_80lU0J9-14" value="Retorna operación exitosa (True)" style="points=[[0.25,0,0],[0.5,0,0],[0.75,0,0],[1,0.25,0],[1,0.5,0],[1,0.75,0],[0.75,1,0],[0.5,1,0],[0.25,1,0],[0,0.75,0],[0,0.5,0],[0,0.25,0]];shape=mxgraph.bpmn.task;whiteSpace=wrap;rectStyle=rounded;size=10;html=1;container=1;expand=0;collapsible=0;taskMarker=abstract;" vertex="1" parent="1">
          <mxGeometry x="1760" y="519" width="120" height="80" as="geometry" />
        </mxCell>
        <mxCell id="ZrcZBpO1Ma6I_80lU0J9-15" style="edgeStyle=orthogonalEdgeStyle;rounded=0;orthogonalLoop=1;jettySize=auto;html=1;entryX=0;entryY=0.5;entryDx=0;entryDy=0;entryPerimeter=0;" edge="1" parent="1" source="ZrcZBpO1Ma6I_80lU0J9-11" target="ZrcZBpO1Ma6I_80lU0J9-14">
          <mxGeometry relative="1" as="geometry" />
        </mxCell>
        <mxCell id="ZrcZBpO1Ma6I_80lU0J9-34" value="Si" style="edgeLabel;html=1;align=center;verticalAlign=middle;resizable=0;points=[];" vertex="1" connectable="0" parent="ZrcZBpO1Ma6I_80lU0J9-15">
          <mxGeometry x="-0.0831" y="4" relative="1" as="geometry">
            <mxPoint x="-1" as="offset" />
          </mxGeometry>
        </mxCell>
        <mxCell id="ZrcZBpO1Ma6I_80lU0J9-16" value="" style="points=[[0.25,0.25,0],[0.5,0,0],[0.75,0.25,0],[1,0.5,0],[0.75,0.75,0],[0.5,1,0],[0.25,0.75,0],[0,0.5,0]];shape=mxgraph.bpmn.gateway2;html=1;verticalLabelPosition=bottom;labelBackgroundColor=#ffffff;verticalAlign=top;align=center;perimeter=rhombusPerimeter;outlineConnect=0;outline=none;symbol=none;gwType=exclusive;" vertex="1" parent="1">
          <mxGeometry x="1210" y="733" width="50" height="50" as="geometry" />
        </mxCell>
        <mxCell id="ZrcZBpO1Ma6I_80lU0J9-18" value="¿Intento de validación&amp;nbsp;&lt;div&gt;es &amp;gt;3?&lt;/div&gt;" style="text;html=1;align=center;verticalAlign=middle;resizable=0;points=[];autosize=1;strokeColor=none;fillColor=none;" vertex="1" parent="1">
          <mxGeometry x="1167" y="695" width="140" height="40" as="geometry" />
        </mxCell>
        <mxCell id="ZrcZBpO1Ma6I_80lU0J9-19" style="edgeStyle=orthogonalEdgeStyle;rounded=0;orthogonalLoop=1;jettySize=auto;html=1;exitX=0.5;exitY=0;exitDx=0;exitDy=0;exitPerimeter=0;entryX=0.5;entryY=1;entryDx=0;entryDy=0;entryPerimeter=0;" edge="1" parent="1" source="ZrcZBpO1Ma6I_80lU0J9-3" target="ZrcZBpO1Ma6I_80lU0J9-43">
          <mxGeometry relative="1" as="geometry" />
        </mxCell>
        <mxCell id="ZrcZBpO1Ma6I_80lU0J9-20" value="" style="points=[[0.25,0.25,0],[0.5,0,0],[0.75,0.25,0],[1,0.5,0],[0.75,0.75,0],[0.5,1,0],[0.25,0.75,0],[0,0.5,0]];shape=mxgraph.bpmn.gateway2;html=1;verticalLabelPosition=bottom;labelBackgroundColor=#ffffff;verticalAlign=top;align=center;perimeter=rhombusPerimeter;outlineConnect=0;outline=none;symbol=none;gwType=parallel;" vertex="1" parent="1">
          <mxGeometry x="295" y="613" width="50" height="50" as="geometry" />
        </mxCell>
        <mxCell id="ZrcZBpO1Ma6I_80lU0J9-21" style="edgeStyle=orthogonalEdgeStyle;rounded=0;orthogonalLoop=1;jettySize=auto;html=1;exitX=1;exitY=0.5;exitDx=0;exitDy=0;exitPerimeter=0;entryX=0;entryY=0.5;entryDx=0;entryDy=0;entryPerimeter=0;" edge="1" parent="1" source="ZrcZBpO1Ma6I_80lU0J9-20" target="ZrcZBpO1Ma6I_80lU0J9-3">
          <mxGeometry relative="1" as="geometry" />
        </mxCell>
        <mxCell id="ZrcZBpO1Ma6I_80lU0J9-22" style="edgeStyle=orthogonalEdgeStyle;rounded=0;orthogonalLoop=1;jettySize=auto;html=1;exitX=1;exitY=0.5;exitDx=0;exitDy=0;exitPerimeter=0;entryX=0;entryY=0.5;entryDx=0;entryDy=0;entryPerimeter=0;" edge="1" parent="1" source="ZrcZBpO1Ma6I_80lU0J9-1" target="ZrcZBpO1Ma6I_80lU0J9-20">
          <mxGeometry relative="1" as="geometry" />
        </mxCell>
        <mxCell id="ZrcZBpO1Ma6I_80lU0J9-25" value="Retorna operación fallida (False)" style="points=[[0.25,0,0],[0.5,0,0],[0.75,0,0],[1,0.25,0],[1,0.5,0],[1,0.75,0],[0.75,1,0],[0.5,1,0],[0.25,1,0],[0,0.75,0],[0,0.5,0],[0,0.25,0]];shape=mxgraph.bpmn.task;whiteSpace=wrap;rectStyle=rounded;size=10;html=1;container=1;expand=0;collapsible=0;taskMarker=abstract;" vertex="1" parent="1">
          <mxGeometry x="1760" y="717" width="120" height="80" as="geometry" />
        </mxCell>
        <mxCell id="ZrcZBpO1Ma6I_80lU0J9-28" value="" style="points=[[0.145,0.145,0],[0.5,0,0],[0.855,0.145,0],[1,0.5,0],[0.855,0.855,0],[0.5,1,0],[0.145,0.855,0],[0,0.5,0]];shape=mxgraph.bpmn.event;html=1;verticalLabelPosition=bottom;labelBackgroundColor=#ffffff;verticalAlign=top;align=center;perimeter=ellipsePerimeter;outlineConnect=0;aspect=fixed;outline=end;symbol=terminate;" vertex="1" parent="1">
          <mxGeometry x="2140" y="625" width="50" height="50" as="geometry" />
        </mxCell>
        <mxCell id="ZrcZBpO1Ma6I_80lU0J9-32" style="edgeStyle=orthogonalEdgeStyle;rounded=0;orthogonalLoop=1;jettySize=auto;html=1;exitX=1;exitY=0.5;exitDx=0;exitDy=0;exitPerimeter=0;" edge="1" parent="1" source="ZrcZBpO1Ma6I_80lU0J9-29" target="ZrcZBpO1Ma6I_80lU0J9-28">
          <mxGeometry relative="1" as="geometry" />
        </mxCell>
        <mxCell id="ZrcZBpO1Ma6I_80lU0J9-29" value="" style="points=[[0.25,0.25,0],[0.5,0,0],[0.75,0.25,0],[1,0.5,0],[0.75,0.75,0],[0.5,1,0],[0.25,0.75,0],[0,0.5,0]];shape=mxgraph.bpmn.gateway2;html=1;verticalLabelPosition=bottom;labelBackgroundColor=#ffffff;verticalAlign=top;align=center;perimeter=rhombusPerimeter;outlineConnect=0;outline=none;symbol=none;gwType=parallel;" vertex="1" parent="1">
          <mxGeometry x="1972" y="625" width="50" height="50" as="geometry" />
        </mxCell>
        <mxCell id="ZrcZBpO1Ma6I_80lU0J9-30" style="edgeStyle=orthogonalEdgeStyle;rounded=0;orthogonalLoop=1;jettySize=auto;html=1;entryX=0.5;entryY=0;entryDx=0;entryDy=0;entryPerimeter=0;" edge="1" parent="1" source="ZrcZBpO1Ma6I_80lU0J9-14" target="ZrcZBpO1Ma6I_80lU0J9-29">
          <mxGeometry relative="1" as="geometry" />
        </mxCell>
        <mxCell id="ZrcZBpO1Ma6I_80lU0J9-33" value="Finaliza proceso OTP" style="text;html=1;align=center;verticalAlign=middle;resizable=0;points=[];autosize=1;strokeColor=none;fillColor=none;" vertex="1" parent="1">
          <mxGeometry x="2090" y="678" width="140" height="30" as="geometry" />
        </mxCell>
        <mxCell id="ZrcZBpO1Ma6I_80lU0J9-36" value="App Comercio Electrónico" style="swimlane;startSize=20;horizontal=0;html=1;whiteSpace=wrap;" vertex="1" parent="1">
          <mxGeometry x="70" y="400" width="2170" height="520" as="geometry" />
        </mxCell>
        <mxCell id="ZrcZBpO1Ma6I_80lU0J9-81" style="edgeStyle=orthogonalEdgeStyle;rounded=0;orthogonalLoop=1;jettySize=auto;html=1;exitX=0;exitY=0.5;exitDx=0;exitDy=0;exitPerimeter=0;" edge="1" parent="ZrcZBpO1Ma6I_80lU0J9-36" source="ZrcZBpO1Ma6I_80lU0J9-73" target="ZrcZBpO1Ma6I_80lU0J9-80">
          <mxGeometry relative="1" as="geometry" />
        </mxCell>
        <mxCell id="ZrcZBpO1Ma6I_80lU0J9-73" value="Mostrar opción de solicitud de nuevo OTP" style="points=[[0.25,0,0],[0.5,0,0],[0.75,0,0],[1,0.25,0],[1,0.5,0],[1,0.75,0],[0.75,1,0],[0.5,1,0],[0.25,1,0],[0,0.75,0],[0,0.5,0],[0,0.25,0]];shape=mxgraph.bpmn.task;whiteSpace=wrap;rectStyle=rounded;size=10;html=1;container=1;expand=0;collapsible=0;taskMarker=abstract;" vertex="1" parent="ZrcZBpO1Ma6I_80lU0J9-36">
          <mxGeometry x="891" y="318" width="120" height="80" as="geometry" />
        </mxCell>
        <mxCell id="ZrcZBpO1Ma6I_80lU0J9-80" value="" style="points=[[0.145,0.145,0],[0.5,0,0],[0.855,0.145,0],[1,0.5,0],[0.855,0.855,0],[0.5,1,0],[0.145,0.855,0],[0,0.5,0]];shape=mxgraph.bpmn.event;html=1;verticalLabelPosition=bottom;labelBackgroundColor=#ffffff;verticalAlign=top;align=center;perimeter=ellipsePerimeter;outlineConnect=0;aspect=fixed;outline=catching;symbol=link;direction=west;" vertex="1" parent="ZrcZBpO1Ma6I_80lU0J9-36">
          <mxGeometry x="719" y="333" width="50" height="50" as="geometry" />
        </mxCell>
        <mxCell id="ZrcZBpO1Ma6I_80lU0J9-38" value="Cliente" style="swimlane;startSize=20;horizontal=0;html=1;whiteSpace=wrap;" vertex="1" parent="1">
          <mxGeometry x="70" y="80" width="2170" height="320" as="geometry" />
        </mxCell>
        <mxCell id="ZrcZBpO1Ma6I_80lU0J9-43" value="" style="points=[[0.25,0.25,0],[0.5,0,0],[0.75,0.25,0],[1,0.5,0],[0.75,0.75,0],[0.5,1,0],[0.25,0.75,0],[0,0.5,0]];shape=mxgraph.bpmn.gateway2;html=1;verticalLabelPosition=bottom;labelBackgroundColor=#ffffff;verticalAlign=top;align=center;perimeter=rhombusPerimeter;outlineConnect=0;outline=none;symbol=none;gwType=exclusive;" vertex="1" parent="1">
          <mxGeometry x="1055" y="214" width="50" height="50" as="geometry" />
        </mxCell>
        <mxCell id="ZrcZBpO1Ma6I_80lU0J9-44" value="¿Recibió OTP?" style="text;html=1;align=center;verticalAlign=middle;resizable=0;points=[];autosize=1;strokeColor=none;fillColor=none;" vertex="1" parent="1">
          <mxGeometry x="1019" y="185" width="110" height="30" as="geometry" />
        </mxCell>
        <mxCell id="ZrcZBpO1Ma6I_80lU0J9-45" style="edgeStyle=orthogonalEdgeStyle;rounded=0;orthogonalLoop=1;jettySize=auto;html=1;exitX=0.5;exitY=1;exitDx=0;exitDy=0;exitPerimeter=0;entryX=0.5;entryY=0;entryDx=0;entryDy=0;entryPerimeter=0;" edge="1" parent="1" source="ZrcZBpO1Ma6I_80lU0J9-7" target="ZrcZBpO1Ma6I_80lU0J9-9">
          <mxGeometry relative="1" as="geometry" />
        </mxCell>
        <mxCell id="ZrcZBpO1Ma6I_80lU0J9-46" style="edgeStyle=orthogonalEdgeStyle;rounded=0;orthogonalLoop=1;jettySize=auto;html=1;exitX=1;exitY=0.5;exitDx=0;exitDy=0;exitPerimeter=0;entryX=0;entryY=0.5;entryDx=0;entryDy=0;entryPerimeter=0;" edge="1" parent="1" source="ZrcZBpO1Ma6I_80lU0J9-43" target="ZrcZBpO1Ma6I_80lU0J9-7">
          <mxGeometry relative="1" as="geometry" />
        </mxCell>
        <mxCell id="ZrcZBpO1Ma6I_80lU0J9-47" value="Si" style="edgeLabel;html=1;align=center;verticalAlign=middle;resizable=0;points=[];" vertex="1" connectable="0" parent="ZrcZBpO1Ma6I_80lU0J9-46">
          <mxGeometry x="-0.0064" y="1" relative="1" as="geometry">
            <mxPoint as="offset" />
          </mxGeometry>
        </mxCell>
        <mxCell id="ZrcZBpO1Ma6I_80lU0J9-50" value="Solicita nuevo OTP" style="points=[[0.25,0,0],[0.5,0,0],[0.75,0,0],[1,0.25,0],[1,0.5,0],[1,0.75,0],[0.75,1,0],[0.5,1,0],[0.25,1,0],[0,0.75,0],[0,0.5,0],[0,0.25,0]];shape=mxgraph.bpmn.task;whiteSpace=wrap;rectStyle=rounded;size=10;html=1;container=1;expand=0;collapsible=0;taskMarker=abstract;" vertex="1" parent="1">
          <mxGeometry x="260" y="199" width="120" height="80" as="geometry" />
        </mxCell>
        <mxCell id="ZrcZBpO1Ma6I_80lU0J9-56" value="" style="points=[[0.25,0.25,0],[0.5,0,0],[0.75,0.25,0],[1,0.5,0],[0.75,0.75,0],[0.5,1,0],[0.25,0.75,0],[0,0.5,0]];shape=mxgraph.bpmn.gateway2;html=1;verticalLabelPosition=bottom;labelBackgroundColor=#ffffff;verticalAlign=top;align=center;perimeter=rhombusPerimeter;outlineConnect=0;outline=none;symbol=none;gwType=parallel;" vertex="1" parent="1">
          <mxGeometry x="294" y="456" width="50" height="50" as="geometry" />
        </mxCell>
        <mxCell id="ZrcZBpO1Ma6I_80lU0J9-57" style="edgeStyle=orthogonalEdgeStyle;rounded=0;orthogonalLoop=1;jettySize=auto;html=1;entryX=0.5;entryY=0;entryDx=0;entryDy=0;entryPerimeter=0;" edge="1" parent="1" source="ZrcZBpO1Ma6I_80lU0J9-50" target="ZrcZBpO1Ma6I_80lU0J9-56">
          <mxGeometry relative="1" as="geometry" />
        </mxCell>
        <mxCell id="ZrcZBpO1Ma6I_80lU0J9-58" style="edgeStyle=orthogonalEdgeStyle;rounded=0;orthogonalLoop=1;jettySize=auto;html=1;entryX=0.5;entryY=0;entryDx=0;entryDy=0;entryPerimeter=0;" edge="1" parent="1" source="ZrcZBpO1Ma6I_80lU0J9-56" target="ZrcZBpO1Ma6I_80lU0J9-20">
          <mxGeometry relative="1" as="geometry" />
        </mxCell>
        <mxCell id="ZrcZBpO1Ma6I_80lU0J9-59" value="Si" style="edgeLabel;html=1;align=center;verticalAlign=middle;resizable=0;points=[];" vertex="1" connectable="0" parent="ZrcZBpO1Ma6I_80lU0J9-58">
          <mxGeometry x="-0.1688" y="-1" relative="1" as="geometry">
            <mxPoint as="offset" />
          </mxGeometry>
        </mxCell>
        <mxCell id="ZrcZBpO1Ma6I_80lU0J9-61" value="" style="points=[[0.145,0.145,0],[0.5,0,0],[0.855,0.145,0],[1,0.5,0],[0.855,0.855,0],[0.5,1,0],[0.145,0.855,0],[0,0.5,0]];shape=mxgraph.bpmn.event;html=1;verticalLabelPosition=bottom;labelBackgroundColor=#ffffff;verticalAlign=top;align=center;perimeter=ellipsePerimeter;outlineConnect=0;aspect=fixed;outline=end;symbol=terminate;" vertex="1" parent="1">
          <mxGeometry x="944" y="455" width="50" height="50" as="geometry" />
        </mxCell>
        <mxCell id="ZrcZBpO1Ma6I_80lU0J9-62" value="Finaliza proceso OTP" style="text;html=1;align=center;verticalAlign=middle;resizable=0;points=[];autosize=1;strokeColor=none;fillColor=none;" vertex="1" parent="1">
          <mxGeometry x="904" y="501" width="140" height="30" as="geometry" />
        </mxCell>
        <mxCell id="ZrcZBpO1Ma6I_80lU0J9-64" value="¿Solicitud de OTP&amp;nbsp;&lt;div&gt;es &amp;gt;=3?&lt;/div&gt;" style="text;html=1;align=center;verticalAlign=middle;resizable=0;points=[];autosize=1;strokeColor=none;fillColor=none;" vertex="1" parent="1">
          <mxGeometry x="182" y="460" width="120" height="40" as="geometry" />
        </mxCell>
        <mxCell id="ZrcZBpO1Ma6I_80lU0J9-66" value="Mostrar alerta de límite de envío de OTP excedido." style="points=[[0.25,0,0],[0.5,0,0],[0.75,0,0],[1,0.25,0],[1,0.5,0],[1,0.75,0],[0.75,1,0],[0.5,1,0],[0.25,1,0],[0,0.75,0],[0,0.5,0],[0,0.25,0]];shape=mxgraph.bpmn.task;whiteSpace=wrap;rectStyle=rounded;size=10;html=1;container=1;expand=0;collapsible=0;taskMarker=abstract;" vertex="1" parent="1">
          <mxGeometry x="480" y="440" width="120" height="80" as="geometry" />
        </mxCell>
        <mxCell id="ZrcZBpO1Ma6I_80lU0J9-67" style="edgeStyle=orthogonalEdgeStyle;rounded=0;orthogonalLoop=1;jettySize=auto;html=1;exitX=1;exitY=0.5;exitDx=0;exitDy=0;exitPerimeter=0;entryX=0;entryY=0.5;entryDx=0;entryDy=0;entryPerimeter=0;fillColor=#e51400;strokeColor=#B20000;" edge="1" parent="1" source="ZrcZBpO1Ma6I_80lU0J9-56" target="ZrcZBpO1Ma6I_80lU0J9-66">
          <mxGeometry relative="1" as="geometry" />
        </mxCell>
        <mxCell id="ZrcZBpO1Ma6I_80lU0J9-68" value="No" style="edgeLabel;html=1;align=center;verticalAlign=middle;resizable=0;points=[];" vertex="1" connectable="0" parent="ZrcZBpO1Ma6I_80lU0J9-67">
          <mxGeometry x="-0.0811" relative="1" as="geometry">
            <mxPoint x="1" as="offset" />
          </mxGeometry>
        </mxCell>
        <mxCell id="ZrcZBpO1Ma6I_80lU0J9-70" value="Retorna operación fallida (False)" style="points=[[0.25,0,0],[0.5,0,0],[0.75,0,0],[1,0.25,0],[1,0.5,0],[1,0.75,0],[0.75,1,0],[0.5,1,0],[0.25,1,0],[0,0.75,0],[0,0.5,0],[0,0.25,0]];shape=mxgraph.bpmn.task;whiteSpace=wrap;rectStyle=rounded;size=10;html=1;container=1;expand=0;collapsible=0;taskMarker=abstract;" vertex="1" parent="1">
          <mxGeometry x="720" y="440" width="120" height="80" as="geometry" />
        </mxCell>
        <mxCell id="ZrcZBpO1Ma6I_80lU0J9-71" style="edgeStyle=orthogonalEdgeStyle;rounded=0;orthogonalLoop=1;jettySize=auto;html=1;exitX=1;exitY=0.5;exitDx=0;exitDy=0;exitPerimeter=0;entryX=0;entryY=0.5;entryDx=0;entryDy=0;entryPerimeter=0;" edge="1" parent="1" source="ZrcZBpO1Ma6I_80lU0J9-66" target="ZrcZBpO1Ma6I_80lU0J9-70">
          <mxGeometry relative="1" as="geometry" />
        </mxCell>
        <mxCell id="ZrcZBpO1Ma6I_80lU0J9-72" style="edgeStyle=orthogonalEdgeStyle;rounded=0;orthogonalLoop=1;jettySize=auto;html=1;exitX=1;exitY=0.5;exitDx=0;exitDy=0;exitPerimeter=0;entryX=0;entryY=0.5;entryDx=0;entryDy=0;entryPerimeter=0;" edge="1" parent="1" source="ZrcZBpO1Ma6I_80lU0J9-70" target="ZrcZBpO1Ma6I_80lU0J9-61">
          <mxGeometry relative="1" as="geometry" />
        </mxCell>
        <mxCell id="ZrcZBpO1Ma6I_80lU0J9-74" style="edgeStyle=orthogonalEdgeStyle;rounded=0;orthogonalLoop=1;jettySize=auto;html=1;exitX=1;exitY=0.5;exitDx=0;exitDy=0;exitPerimeter=0;entryX=0.5;entryY=1;entryDx=0;entryDy=0;entryPerimeter=0;" edge="1" parent="1" source="ZrcZBpO1Ma6I_80lU0J9-25" target="ZrcZBpO1Ma6I_80lU0J9-29">
          <mxGeometry relative="1" as="geometry" />
        </mxCell>
        <mxCell id="ZrcZBpO1Ma6I_80lU0J9-76" value="" style="points=[[0.25,0.25,0],[0.5,0,0],[0.75,0.25,0],[1,0.5,0],[0.75,0.75,0],[0.5,1,0],[0.25,0.75,0],[0,0.5,0]];shape=mxgraph.bpmn.gateway2;html=1;verticalLabelPosition=bottom;labelBackgroundColor=#ffffff;verticalAlign=top;align=center;perimeter=rhombusPerimeter;outlineConnect=0;outline=none;symbol=none;gwType=parallel;" vertex="1" parent="1">
          <mxGeometry x="650" y="213" width="50" height="50" as="geometry" />
        </mxCell>
        <mxCell id="ZrcZBpO1Ma6I_80lU0J9-77" style="edgeStyle=orthogonalEdgeStyle;rounded=0;orthogonalLoop=1;jettySize=auto;html=1;exitX=0;exitY=0.5;exitDx=0;exitDy=0;exitPerimeter=0;entryX=1;entryY=0.5;entryDx=0;entryDy=0;entryPerimeter=0;fillColor=#e51400;strokeColor=#B20000;" edge="1" parent="1" source="ZrcZBpO1Ma6I_80lU0J9-43" target="ZrcZBpO1Ma6I_80lU0J9-76">
          <mxGeometry relative="1" as="geometry" />
        </mxCell>
        <mxCell id="ZrcZBpO1Ma6I_80lU0J9-79" value="No" style="edgeLabel;html=1;align=center;verticalAlign=middle;resizable=0;points=[];" vertex="1" connectable="0" parent="ZrcZBpO1Ma6I_80lU0J9-77">
          <mxGeometry x="-0.1509" y="-5" relative="1" as="geometry">
            <mxPoint x="-43" as="offset" />
          </mxGeometry>
        </mxCell>
        <mxCell id="ZrcZBpO1Ma6I_80lU0J9-78" style="edgeStyle=orthogonalEdgeStyle;rounded=0;orthogonalLoop=1;jettySize=auto;html=1;exitX=0;exitY=0.5;exitDx=0;exitDy=0;exitPerimeter=0;entryX=1;entryY=0.5;entryDx=0;entryDy=0;entryPerimeter=0;" edge="1" parent="1" source="ZrcZBpO1Ma6I_80lU0J9-76" target="ZrcZBpO1Ma6I_80lU0J9-50">
          <mxGeometry relative="1" as="geometry" />
        </mxCell>
        <mxCell id="ZrcZBpO1Ma6I_80lU0J9-82" value="" style="points=[[0.145,0.145,0],[0.5,0,0],[0.855,0.145,0],[1,0.5,0],[0.855,0.855,0],[0.5,1,0],[0.145,0.855,0],[0,0.5,0]];shape=mxgraph.bpmn.event;html=1;verticalLabelPosition=bottom;labelBackgroundColor=#ffffff;verticalAlign=top;align=center;perimeter=ellipsePerimeter;outlineConnect=0;aspect=fixed;outline=catching;symbol=link;direction=west;" vertex="1" parent="1">
          <mxGeometry x="650" y="110" width="50" height="50" as="geometry" />
        </mxCell>
        <mxCell id="ZrcZBpO1Ma6I_80lU0J9-84" style="edgeStyle=orthogonalEdgeStyle;rounded=0;orthogonalLoop=1;jettySize=auto;html=1;exitX=0.5;exitY=0;exitDx=0;exitDy=0;exitPerimeter=0;entryX=0.5;entryY=0;entryDx=0;entryDy=0;entryPerimeter=0;" edge="1" parent="1" source="ZrcZBpO1Ma6I_80lU0J9-82" target="ZrcZBpO1Ma6I_80lU0J9-76">
          <mxGeometry relative="1" as="geometry" />
        </mxCell>
        <mxCell id="ZrcZBpO1Ma6I_80lU0J9-85" value="Mostrar alerta de OTP incorrecto" style="points=[[0.25,0,0],[0.5,0,0],[0.75,0,0],[1,0.25,0],[1,0.5,0],[1,0.75,0],[0.75,1,0],[0.5,1,0],[0.25,1,0],[0,0.75,0],[0,0.5,0],[0,0.25,0]];shape=mxgraph.bpmn.task;whiteSpace=wrap;rectStyle=rounded;size=10;html=1;container=1;expand=0;collapsible=0;taskMarker=abstract;" vertex="1" parent="1">
          <mxGeometry x="1456" y="718" width="120" height="80" as="geometry" />
        </mxCell>
        <mxCell id="ZrcZBpO1Ma6I_80lU0J9-91" style="edgeStyle=orthogonalEdgeStyle;rounded=0;orthogonalLoop=1;jettySize=auto;html=1;exitX=0.5;exitY=1;exitDx=0;exitDy=0;exitPerimeter=0;entryX=0.5;entryY=0;entryDx=0;entryDy=0;entryPerimeter=0;" edge="1" parent="1" source="ZrcZBpO1Ma6I_80lU0J9-11" target="ZrcZBpO1Ma6I_80lU0J9-85">
          <mxGeometry relative="1" as="geometry" />
        </mxCell>
        <mxCell id="ZrcZBpO1Ma6I_80lU0J9-92" style="edgeStyle=orthogonalEdgeStyle;rounded=0;orthogonalLoop=1;jettySize=auto;html=1;exitX=0;exitY=0.5;exitDx=0;exitDy=0;exitPerimeter=0;entryX=1;entryY=0.5;entryDx=0;entryDy=0;entryPerimeter=0;" edge="1" parent="1" source="ZrcZBpO1Ma6I_80lU0J9-85" target="ZrcZBpO1Ma6I_80lU0J9-16">
          <mxGeometry relative="1" as="geometry" />
        </mxCell>
        <mxCell id="ZrcZBpO1Ma6I_80lU0J9-93" style="edgeStyle=orthogonalEdgeStyle;rounded=0;orthogonalLoop=1;jettySize=auto;html=1;exitX=0;exitY=0.5;exitDx=0;exitDy=0;exitPerimeter=0;entryX=1;entryY=0.5;entryDx=0;entryDy=0;entryPerimeter=0;" edge="1" parent="1" source="ZrcZBpO1Ma6I_80lU0J9-16" target="ZrcZBpO1Ma6I_80lU0J9-73">
          <mxGeometry relative="1" as="geometry" />
        </mxCell>
        <mxCell id="ZrcZBpO1Ma6I_80lU0J9-94" style="edgeStyle=orthogonalEdgeStyle;rounded=0;orthogonalLoop=1;jettySize=auto;html=1;exitX=0.5;exitY=1;exitDx=0;exitDy=0;exitPerimeter=0;entryX=0.5;entryY=1;entryDx=0;entryDy=0;entryPerimeter=0;" edge="1" parent="1" source="ZrcZBpO1Ma6I_80lU0J9-16" target="ZrcZBpO1Ma6I_80lU0J9-25">
          <mxGeometry relative="1" as="geometry">
            <Array as="points">
              <mxPoint x="1235" y="880" />
              <mxPoint x="1820" y="880" />
            </Array>
          </mxGeometry>
        </mxCell>
        <mxCell id="ZrcZBpO1Ma6I_80lU0J9-97" value="" style="swimlane;html=1;startSize=20;fontStyle=0;collapsible=0;horizontal=1;swimlaneLine=0;fillColor=none;whiteSpace=wrap;" vertex="1" parent="1">
          <mxGeometry x="70" y="40" width="2170" height="40" as="geometry" />
        </mxCell>
        <mxCell id="ZrcZBpO1Ma6I_80lU0J9-98" value="&lt;font style=&quot;font-size: 22px;&quot;&gt;OTP&lt;/font&gt;" style="text;html=1;align=center;verticalAlign=middle;whiteSpace=wrap;rounded=0;fontStyle=1" vertex="1" parent="1">
          <mxGeometry x="1070" y="45" width="60" height="30" as="geometry" />
        </mxCell>
      </root>
    </mxGraphModel>
  </diagram>
</mxfile>
